<mxfile host="app.diagrams.net" modified="2020-08-03T16:07:55.951Z" agent="5.0 (Windows NT 10.0; Win64; x64) AppleWebKit/537.36 (KHTML, like Gecko) Chrome/84.0.4147.105 Safari/537.36" etag="5UV8NOWhJwY1tz1u7c4W" version="13.5.8" type="github">
  <diagram id="prtHgNgQTEPvFCAcTncT" name="Page-1">
    <mxGraphModel dx="731" dy="459" grid="1" gridSize="10" guides="1" tooltips="1" connect="1" arrows="1" fold="1" page="1" pageScale="1" pageWidth="827" pageHeight="1169" math="0" shadow="0">
      <root>
        <mxCell id="0" />
        <mxCell id="1" parent="0" />
        <mxCell id="m0RZPSVap7t2fpv9oxeb-20" value="" style="rounded=1;whiteSpace=wrap;html=1;" parent="1" vertex="1">
          <mxGeometry x="70" y="305" width="660" height="455" as="geometry" />
        </mxCell>
        <mxCell id="m0RZPSVap7t2fpv9oxeb-1" value="" style="rounded=1;whiteSpace=wrap;html=1;fillColor=#1ba1e2;strokeColor=#006EAF;fontColor=#ffffff;" parent="1" vertex="1">
          <mxGeometry x="120" y="360" width="160" height="240" as="geometry" />
        </mxCell>
        <mxCell id="m0RZPSVap7t2fpv9oxeb-5" value="Down Sweep Intro" style="text;html=1;strokeColor=none;fillColor=none;align=center;verticalAlign=middle;whiteSpace=wrap;rounded=0;" parent="1" vertex="1">
          <mxGeometry x="142.5" y="400" width="115" height="20" as="geometry" />
        </mxCell>
        <mxCell id="m0RZPSVap7t2fpv9oxeb-6" value="Crash Intro" style="text;html=1;strokeColor=none;fillColor=none;align=center;verticalAlign=middle;whiteSpace=wrap;rounded=0;" parent="1" vertex="1">
          <mxGeometry x="120" y="565" width="160" height="20" as="geometry" />
        </mxCell>
        <mxCell id="m0RZPSVap7t2fpv9oxeb-8" value="FX" style="text;html=1;strokeColor=none;fillColor=none;align=center;verticalAlign=middle;whiteSpace=wrap;rounded=0;" parent="1" vertex="1">
          <mxGeometry x="180" y="340" width="40" height="20" as="geometry" />
        </mxCell>
        <mxCell id="m0RZPSVap7t2fpv9oxeb-9" value="" style="rounded=1;whiteSpace=wrap;html=1;strokeColor=#6D1F00;fontColor=#ffffff;fillColor=#a0522d;" parent="1" vertex="1">
          <mxGeometry x="320" y="360" width="160" height="240" as="geometry" />
        </mxCell>
        <mxCell id="m0RZPSVap7t2fpv9oxeb-10" value="Kick 4/4" style="text;html=1;strokeColor=none;fillColor=none;align=center;verticalAlign=middle;whiteSpace=wrap;rounded=0;" parent="1" vertex="1">
          <mxGeometry x="360" y="400" width="80" height="20" as="geometry" />
        </mxCell>
        <mxCell id="m0RZPSVap7t2fpv9oxeb-11" value="Ride 4/4" style="text;html=1;strokeColor=none;fillColor=none;align=center;verticalAlign=middle;whiteSpace=wrap;rounded=0;" parent="1" vertex="1">
          <mxGeometry x="305" y="460" width="190" height="20" as="geometry" />
        </mxCell>
        <mxCell id="m0RZPSVap7t2fpv9oxeb-13" value="Drum" style="text;html=1;strokeColor=none;fillColor=none;align=center;verticalAlign=middle;whiteSpace=wrap;rounded=0;" parent="1" vertex="1">
          <mxGeometry x="380" y="340" width="40" height="20" as="geometry" />
        </mxCell>
        <mxCell id="m0RZPSVap7t2fpv9oxeb-14" value="" style="rounded=1;whiteSpace=wrap;html=1;fillColor=#60a917;strokeColor=#2D7600;fontColor=#ffffff;" parent="1" vertex="1">
          <mxGeometry x="520" y="360" width="160" height="240" as="geometry" />
        </mxCell>
        <mxCell id="m0RZPSVap7t2fpv9oxeb-15" value="Melody" style="text;html=1;strokeColor=none;fillColor=none;align=center;verticalAlign=middle;whiteSpace=wrap;rounded=0;" parent="1" vertex="1">
          <mxGeometry x="550" y="400" width="100" height="20" as="geometry" />
        </mxCell>
        <mxCell id="m0RZPSVap7t2fpv9oxeb-16" value="White Noise Melody" style="text;html=1;strokeColor=none;fillColor=none;align=center;verticalAlign=middle;whiteSpace=wrap;rounded=0;" parent="1" vertex="1">
          <mxGeometry x="540" y="440" width="125" height="20" as="geometry" />
        </mxCell>
        <mxCell id="m0RZPSVap7t2fpv9oxeb-18" value="Melody" style="text;html=1;strokeColor=none;fillColor=none;align=center;verticalAlign=middle;whiteSpace=wrap;rounded=0;" parent="1" vertex="1">
          <mxGeometry x="580" y="340" width="40" height="20" as="geometry" />
        </mxCell>
        <mxCell id="m0RZPSVap7t2fpv9oxeb-21" value="Drop" style="text;html=1;strokeColor=none;fillColor=none;align=center;verticalAlign=middle;whiteSpace=wrap;rounded=0;" parent="1" vertex="1">
          <mxGeometry x="365" y="285" width="70" height="20" as="geometry" />
        </mxCell>
        <mxCell id="_SBC7PhoCTFk9qtBru0z-2" value="Rolling Bass" style="text;html=1;strokeColor=none;fillColor=none;align=center;verticalAlign=middle;whiteSpace=wrap;rounded=0;" parent="1" vertex="1">
          <mxGeometry x="560" y="490" width="80" height="20" as="geometry" />
        </mxCell>
        <mxCell id="_SBC7PhoCTFk9qtBru0z-3" value="" style="rounded=1;whiteSpace=wrap;html=1;fillColor=#1ba1e2;arcSize=24;strokeColor=#006EAF;fontColor=#ffffff;" parent="1" vertex="1">
          <mxGeometry x="120" y="620" width="160" height="100" as="geometry" />
        </mxCell>
        <mxCell id="_SBC7PhoCTFk9qtBru0z-8" value="" style="rounded=1;whiteSpace=wrap;html=1;fillColor=#a0522d;strokeColor=#6D1F00;fontColor=#ffffff;" parent="1" vertex="1">
          <mxGeometry x="325" y="620" width="155" height="100" as="geometry" />
        </mxCell>
        <mxCell id="_SBC7PhoCTFk9qtBru0z-10" value="Bass" style="text;html=1;strokeColor=none;fillColor=none;align=center;verticalAlign=middle;whiteSpace=wrap;rounded=0;" parent="1" vertex="1">
          <mxGeometry x="560" y="530" width="80" height="20" as="geometry" />
        </mxCell>
        <mxCell id="_SBC7PhoCTFk9qtBru0z-11" value="SideChained Chord" style="text;html=1;strokeColor=none;fillColor=none;align=center;verticalAlign=middle;whiteSpace=wrap;rounded=0;" parent="1" vertex="1">
          <mxGeometry x="540" y="565" width="120" height="20" as="geometry" />
        </mxCell>
        <mxCell id="_SBC7PhoCTFk9qtBru0z-12" value="" style="rounded=1;whiteSpace=wrap;html=1;fillColor=#60a917;strokeColor=#2D7600;fontColor=#ffffff;" parent="1" vertex="1">
          <mxGeometry x="520" y="620" width="160" height="100" as="geometry" />
        </mxCell>
        <mxCell id="_SBC7PhoCTFk9qtBru0z-13" value="Fliter Automation" style="text;html=1;strokeColor=none;fillColor=none;align=center;verticalAlign=middle;whiteSpace=wrap;rounded=0;" parent="1" vertex="1">
          <mxGeometry x="535" y="640" width="130" height="20" as="geometry" />
        </mxCell>
        <mxCell id="_SBC7PhoCTFk9qtBru0z-15" value="Sidechain Automation" style="text;html=1;strokeColor=none;fillColor=none;align=center;verticalAlign=middle;whiteSpace=wrap;rounded=0;" parent="1" vertex="1">
          <mxGeometry x="530" y="680" width="140" height="20" as="geometry" />
        </mxCell>
        <mxCell id="GAa9w-9112-TeFDChxF--1" value="Snare 2/4 8 Bar" style="text;html=1;strokeColor=none;fillColor=none;align=center;verticalAlign=middle;whiteSpace=wrap;rounded=0;" parent="1" vertex="1">
          <mxGeometry x="305" y="540" width="190" height="20" as="geometry" />
        </mxCell>
      </root>
    </mxGraphModel>
  </diagram>
</mxfile>
